<svg width="130" height="39" viewBox="0 0 130 39" fill="none" xmlns="http://www.w3.org/2000/svg">
<mask id="mask0_106_5324" style="mask-type:luminance" maskUnits="userSpaceOnUse" x="0" y="0" width="130" height="38">
<path d="M130 0H0V37.8064H130V0Z" fill="white"/>
</mask>
<g mask="url(#mask0_106_5324)">
<path d="M0 18.9355C0 18.7097 0 18.4839 0 18.2581C0.387097 8.09677 8.70968 0 18.9355 0C29.1613 0 37.4839 8.09677 37.8387 18.2258C37.8387 18.4516 37.8387 18.6774 37.8387 18.9032C37.8387 29.3548 29.3548 37.8064 18.9355 37.8064C8.48387 37.8387 0 29.3548 0 18.9355ZM18.871 6.16129C11.9032 6.16129 6.25806 11.8065 6.25806 18.7742C6.25806 25.7419 11.9032 31.3871 18.871 31.3871C25.8387 31.3871 31.4839 25.7419 31.4839 18.7742C31.5161 11.8387 25.8387 6.16129 18.871 6.16129Z" fill="#00B56C"/>
<path d="M25.1936 11.7419V24.3871C25.1936 24.5806 25.1614 24.7419 25.0968 24.9032C24.8065 25.7097 23.7743 26.129 22.9678 25.5806L21.6452 24.7097L16.6775 21.3548V17.9032C16.6775 17.9032 16.6775 17.871 16.7097 17.871L16.742 17.8387C16.742 17.8387 16.742 17.8387 16.7743 17.8387L20.6775 20.4516C20.7743 20.5161 20.9355 20.5806 21.0646 20.5806C21.2259 20.5806 21.4194 20.5161 21.5485 20.3871C21.6775 20.2581 21.7743 20.0645 21.7743 19.9032V15.0645C21.7743 14.5161 21.9033 14 22.1614 13.5161C22.7743 12.4839 23.8388 11.8064 25.0968 11.7742C25.1291 11.7419 25.1614 11.7419 25.1936 11.7419Z" fill="#00B56C"/>
<path d="M21.0968 16.1613V19.6774C21.0968 19.7419 21.0323 19.7419 21.0323 19.7419L17.0968 17.129C17 17.0645 16.8387 17 16.7097 17C16.3226 17 16.0323 17.3226 16.0323 17.6774V22.5161C16.0323 23.0645 15.9033 23.5806 15.6452 24.0645C15.0323 25.0968 13.9678 25.7742 12.7097 25.8064C12.6775 25.8064 12.6452 25.8064 12.6129 25.8064V13.1935C12.6129 13 12.6452 12.8387 12.7097 12.7097C13 11.9032 14.0323 11.4839 14.8387 12.0323L15.2581 12.2903L21.0968 16.1613Z" fill="#00B56C"/>
<path d="M57.8387 22.8387L58.7742 26.2258C57.6129 26.6129 56 27 54.1935 27C50.0645 27 47.2581 24.5161 47.2581 20.4516C47.2581 16.3871 50.0645 13.9032 54.1935 13.9032C56 13.9032 57.5806 14.2903 58.7742 14.6774L57.8387 18.0968C57.2258 17.8387 56.3226 17.6452 55.4194 17.6452C53.3548 17.6452 52.2258 18.6774 52.2258 20.4839C52.2258 22.2903 53.3871 23.3226 55.4194 23.3226C56.3548 23.2903 57.2258 23.0968 57.8387 22.8387Z" fill="#00B56C"/>
<path d="M73.5484 26.7742H68.6774L68.0968 24.6774H64.3548L63.8064 26.7742H58.9032L63.3226 14.1613H69.129L73.5484 26.7742ZM65.1613 21.7097H67.2903L66.2258 17.8387L65.1613 21.7097Z" fill="#00B56C"/>
<path d="M86.7097 26.7742H81.871C81.0968 22.8065 80.5161 22.8387 79.0645 22.8387V26.7742H74.3871V14.2903C75.4839 14.0968 77.5484 13.9032 79.2258 13.9032C82.8387 13.9032 86.4193 14.7742 86.4193 18.2903C86.4193 20.2581 85.129 21.0968 84.0968 21.5806C85.1613 21.8065 86.1935 22.9355 86.7097 26.7742ZM81.6774 18.5806C81.6774 17.5484 80.4193 17.3226 79.5806 17.3226C79.3548 17.3226 79.1613 17.3548 79.0323 17.3548V19.871C79.1613 19.9032 79.2903 19.9032 79.4516 19.9032C80.2581 19.9032 81.6774 19.7097 81.6774 18.5806Z" fill="#00B56C"/>
<path d="M99.9032 19.7742V26.0645C98.6129 26.6129 97 27 94.6452 27C90.5484 27 87.4839 24.6452 87.4839 20.4839C87.4839 16.4194 90.5484 13.9032 94.871 13.9032C96.9355 13.9032 98.0645 14.1613 99.3548 14.5161L98.7419 18C97.9677 17.7742 97.0645 17.5484 95.8387 17.5484C93.3548 17.5484 92.4516 18.7097 92.4516 20.5161C92.4516 22.5161 93.9032 23.4194 95.2258 23.4194C95.3871 23.4194 95.5484 23.3871 95.6774 23.3871V19.7742H99.9032Z" fill="#00B56C"/>
<path d="M115.387 20.4839C115.387 24.5806 112.484 27.0323 108.258 27.0323C104 27.0323 101.129 24.5806 101.129 20.4839C101.129 16.3871 104.032 13.9355 108.258 13.9355C112.516 13.9355 115.387 16.3871 115.387 20.4839ZM110.484 20.4839C110.484 18.6129 109.742 17.5484 108.258 17.5484C106.774 17.5484 106.032 18.6129 106.032 20.4839C106.032 22.3548 106.774 23.4194 108.258 23.4194C109.742 23.3871 110.484 22.3226 110.484 20.4839Z" fill="#00B56C"/>
<path d="M130 14.1613V26.7742H125.387L121.419 20.2903V26.7742H116.968V14.1613H121.806L125.516 20.6129V14.1613H130Z" fill="#00B56C"/>
</g>
</svg>
