<svg width="135" height="40" viewBox="0 0 135 40" fill="none" xmlns="http://www.w3.org/2000/svg">
<g clip-path="url(#clip0_177_5254)">
<path d="M124.249 7.92969e-06H10.7566C10.3429 7.92969e-06 9.9342 7.92975e-06 9.5216 0.00200793C9.17621 0.00400793 8.83358 0.00981793 8.48488 0.0147079C7.72733 0.0226097 6.97157 0.0816842 6.22416 0.191418C5.4778 0.303541 4.75482 0.514924 4.07967 0.818418C3.40534 1.12448 2.7892 1.52218 2.25358 1.99708C1.71514 2.47064 1.26632 3.01802 0.924356 3.61817C0.581453 4.21712 0.343683 4.85895 0.219258 5.52149C0.0936495 6.18319 0.0260586 6.85253 0.0170916 7.52349C0.00662229 7.83009 0.00551669 8.13771 0 8.44435V31.5586C0.00551669 31.8691 0.00662229 32.1699 0.0170916 32.4805C0.0260614 33.1514 0.0936522 33.8207 0.219258 34.4824C0.343339 35.1453 0.581124 35.7875 0.924356 36.3867C1.26616 36.9849 1.71505 37.5301 2.25358 38.001C2.78717 38.478 3.40371 38.876 4.07967 39.1797C4.75481 39.484 5.47772 39.6967 6.22416 39.8105C6.9717 39.9194 7.72738 39.9785 8.48488 39.9873C8.83358 39.9941 9.17621 39.998 9.5216 39.998C9.93419 40 10.343 40 10.7566 40H124.249C124.655 40 125.067 40 125.472 39.998C125.816 39.998 126.169 39.9941 126.512 39.9873C127.268 39.9789 128.023 39.9198 128.769 39.8105C129.518 39.6959 130.243 39.4833 130.921 39.1797C131.597 38.8758 132.213 38.4779 132.746 38.001C133.283 37.5282 133.733 36.9835 134.079 36.3867C134.42 35.7871 134.655 35.145 134.777 34.4824C134.903 33.8206 134.973 33.1515 134.987 32.4805C134.991 32.1699 134.991 31.8691 134.991 31.5586C135 31.1953 135 30.834 135 30.4648V9.53614C135 9.16993 135 8.80665 134.991 8.44435C134.991 8.13771 134.991 7.83009 134.987 7.52345C134.973 6.85243 134.903 6.18324 134.777 5.52145C134.655 4.85929 134.419 4.21751 134.079 3.61813C133.383 2.4152 132.278 1.43603 130.921 0.818328C130.243 0.515575 129.518 0.304248 128.769 0.191328C128.023 0.0811107 127.269 0.0220157 126.512 0.0145679C126.169 0.00968793 125.816 0.00382793 125.472 0.00187793C125.067 -0.00012207 124.655 -0.00012207 124.249 -0.00012207V7.92969e-06Z" fill="black"/>
<path d="M9.52707 39.125C9.18335 39.125 8.84792 39.1211 8.50689 39.1143C7.80042 39.1061 7.0956 39.0516 6.39821 38.9512C5.74792 38.8519 5.11798 38.6673 4.52914 38.4033C3.94571 38.1415 3.41356 37.7983 2.9531 37.3867C2.48598 36.98 2.09708 36.5082 1.80181 35.9902C1.50328 35.4688 1.29669 34.9099 1.18922 34.333C1.07316 33.7131 1.01036 33.0863 1.00138 32.458C0.994227 32.2471 0.984863 31.5449 0.984863 31.5449V8.44434C0.984863 8.44434 0.994836 7.75293 1.00144 7.5498C1.01004 6.92248 1.07247 6.29665 1.18818 5.67773C1.29585 5.09925 1.50261 4.53875 1.80129 4.01563C2.09547 3.49794 2.48222 3.02586 2.94653 2.61768C3.41032 2.20562 3.94416 1.8606 4.52859 1.59521C5.11607 1.33209 5.74483 1.14873 6.3938 1.05127C7.09348 0.949836 7.80075 0.894996 8.50967 0.88721L9.52763 0.875H125.467L126.497 0.8877C127.199 0.895099 127.9 0.94945 128.593 1.05029C129.249 1.14898 129.884 1.33362 130.479 1.59814C131.649 2.13299 132.602 2.97916 133.203 4.01807C133.497 4.53758 133.701 5.09351 133.807 5.66699C133.924 6.29099 133.989 6.92174 134.003 7.5542C134.006 7.8374 134.006 8.1416 134.006 8.44434C134.015 8.81934 134.015 9.17627 134.015 9.53613V30.4648C134.015 30.8281 134.015 31.1826 134.006 31.54C134.006 31.8652 134.006 32.1631 134.002 32.4697C133.989 33.0909 133.924 33.7104 133.809 34.3232C133.704 34.9043 133.498 35.4675 133.2 35.9932C132.902 36.5056 132.516 36.9733 132.054 37.3789C131.593 37.7927 131.06 38.1379 130.475 38.4014C129.883 38.6674 129.248 38.8527 128.593 38.9512C127.896 39.0522 127.191 39.1067 126.485 39.1143C126.154 39.1211 125.808 39.125 125.472 39.125L124.249 39.127L9.52707 39.125Z" fill="white"/>
<path d="M47.7231 27.1397H42.3831L41.1007 30.4961H38.8389L43.8969 18.0781H46.2468L51.3048 30.4961H49.0044L47.7231 27.1397ZM42.9362 25.5908H47.169L45.0823 20.1436H45.0239L42.9362 25.5908Z" fill="black"/>
<path d="M62.2283 25.9698C62.2283 28.7833 60.5295 30.5909 57.9658 30.5909C57.3163 30.621 56.6705 30.4884 56.1021 30.2083C55.5338 29.9281 55.0659 29.5118 54.7521 29.0069H54.7036V33.4913H52.607V21.4425H54.6364V22.9483H54.6749C55.0032 22.4459 55.4789 22.0317 56.0516 21.7498C56.6243 21.468 57.2725 21.329 57.9272 21.3477C60.5196 21.3477 62.2283 23.1641 62.2283 25.9698ZM60.0734 25.9698C60.0734 24.1368 59.0047 22.9317 57.3741 22.9317C55.7723 22.9317 54.6948 24.1622 54.6948 25.9698C54.6948 27.794 55.7723 29.0157 57.3741 29.0157C59.0047 29.0157 60.0733 27.8194 60.0733 25.9698H60.0734Z" fill="black"/>
<path d="M73.4708 25.9698C73.4708 28.7833 71.7714 30.5909 69.2077 30.5909C68.5582 30.621 67.9124 30.4884 67.344 30.2083C66.7756 29.9281 66.3078 29.5118 65.994 29.0069H65.9454V33.4913H63.8489V21.4425H65.8782V22.9483H65.9168C66.245 22.4459 66.7208 22.0317 67.2935 21.7498C67.8662 21.468 68.5144 21.329 69.1691 21.3477C71.7614 21.3477 73.4708 23.1641 73.4708 25.9698ZM71.3153 25.9698C71.3153 24.1368 70.2466 22.9317 68.616 22.9317C67.0141 22.9317 65.9367 24.1622 65.9367 25.9698C65.9367 27.794 67.0141 29.0157 68.616 29.0157C70.2466 29.0157 71.3153 27.8194 71.3153 25.9698Z" fill="black"/>
<path d="M80.8996 27.0362C81.055 28.2676 82.4046 29.0762 84.2488 29.0762C86.016 29.0762 87.2874 28.2676 87.2874 27.1572C87.2874 26.1934 86.5206 25.6162 84.705 25.2207L82.8893 24.833C80.3168 24.2822 79.1226 23.2158 79.1226 21.4854C79.1226 19.3428 81.229 17.8711 84.2191 17.8711C87.1805 17.8711 89.2099 19.3428 89.2782 21.4854H87.1618C87.0351 20.2461 85.8794 19.4981 84.1904 19.4981C82.5015 19.4981 81.3458 20.2549 81.3458 21.3565C81.3458 22.2344 82.084 22.751 83.8897 23.1465L85.4332 23.4824C88.3075 24.0849 89.5007 25.1084 89.5007 26.9248C89.5007 29.248 87.4141 30.7031 84.0934 30.7031C80.9866 30.7031 78.8889 29.2822 78.7534 27.0361L80.8996 27.0362Z" fill="black"/>
<path d="M94.0277 19.2998V21.4424H95.9701V22.9141H94.0277V27.9053C94.0277 28.6807 94.4167 29.042 95.2705 29.042C95.5011 29.0384 95.7313 29.0241 95.9602 28.999V30.4619C95.5763 30.5255 95.1861 30.5543 94.7956 30.5478C92.7277 30.5478 91.9213 29.8593 91.9213 28.1035V22.9141H90.4362V21.4424H91.9212V19.2998H94.0277Z" fill="black"/>
<path d="M97.0939 25.9697C97.0939 23.1211 98.9866 21.3311 101.938 21.3311C104.9 21.3311 106.783 23.1211 106.783 25.9697C106.783 28.8262 104.909 30.6084 101.938 30.6084C98.9679 30.6084 97.0939 28.8262 97.0939 25.9697ZM104.647 25.9697C104.647 24.0156 103.637 22.8623 101.938 22.8623C100.239 22.8623 99.229 24.0244 99.229 25.9697C99.229 27.9316 100.239 29.0762 101.938 29.0762C103.637 29.0762 104.647 27.9316 104.647 25.9697H104.647Z" fill="black"/>
<path d="M108.512 21.4424H110.512V22.9834H110.56C110.695 22.5021 111.013 22.0768 111.461 21.7789C111.908 21.481 112.458 21.3287 113.017 21.3476C113.259 21.3469 113.499 21.3702 113.735 21.417V23.1553C113.43 23.0726 113.112 23.0347 112.793 23.043C112.489 23.032 112.185 23.0796 111.903 23.1825C111.621 23.2854 111.368 23.4411 111.16 23.639C110.953 23.8369 110.796 24.0723 110.701 24.3289C110.605 24.5856 110.574 24.8575 110.609 25.126V30.4961H108.512L108.512 21.4424Z" fill="black"/>
<path d="M123.402 27.8369C123.12 29.4805 121.314 30.6084 119.004 30.6084C116.032 30.6084 114.188 28.8437 114.188 26.0127C114.188 23.1729 116.042 21.3311 118.915 21.3311C121.741 21.3311 123.518 23.0518 123.518 25.7969V26.4336H116.304V26.5459C116.271 26.8791 116.318 27.2148 116.442 27.5306C116.567 27.8464 116.765 28.1352 117.025 28.3778C117.285 28.6203 117.6 28.8111 117.95 28.9374C118.299 29.0637 118.675 29.1226 119.052 29.1103C119.548 29.1515 120.045 29.0498 120.47 28.8203C120.895 28.5909 121.225 28.246 121.411 27.8369L123.402 27.8369ZM116.314 25.1348H121.421C121.44 24.8352 121.388 24.5354 121.27 24.2541C121.152 23.9729 120.97 23.7164 120.735 23.5006C120.499 23.2849 120.216 23.1145 119.903 23.0003C119.59 22.8861 119.254 22.8305 118.915 22.8369C118.574 22.8351 118.236 22.8933 117.92 23.008C117.604 23.1227 117.317 23.2918 117.075 23.5054C116.833 23.7191 116.641 23.973 116.511 24.2527C116.38 24.5323 116.313 24.8321 116.314 25.1348V25.1348Z" fill="black"/>
<path d="M42.6739 8.73101C43.1135 8.70305 43.5545 8.76191 43.9653 8.90335C44.3761 9.04478 44.7463 9.26526 45.0493 9.54889C45.3523 9.83251 45.5806 10.1722 45.7175 10.5435C45.8545 10.9148 45.8968 11.3083 45.8414 11.6959C45.8414 13.6021 44.679 14.6979 42.6739 14.6979H40.2424V8.73101H42.6739ZM41.288 13.854H42.5571C42.8712 13.8707 43.1855 13.825 43.4772 13.7204C43.7689 13.6158 44.0306 13.4548 44.2432 13.2493C44.4559 13.0437 44.6141 12.7987 44.7065 12.5321C44.7988 12.2655 44.823 11.9839 44.7771 11.708C44.8196 11.4332 44.7931 11.1534 44.6993 10.8887C44.6055 10.6241 44.4469 10.3811 44.2347 10.1771C44.0225 9.97322 43.7621 9.81341 43.4721 9.70917C43.1821 9.60494 42.8696 9.55885 42.5571 9.57422H41.288V13.854Z" fill="black"/>
<path d="M47.0224 12.4444C46.9904 12.1485 47.0286 11.8499 47.1345 11.5679C47.2404 11.2858 47.4116 11.0264 47.6371 10.8065C47.8627 10.5865 48.1377 10.4107 48.4443 10.2904C48.751 10.1702 49.0827 10.108 49.4181 10.108C49.7534 10.108 50.0851 10.1702 50.3918 10.2904C50.6985 10.4107 50.9734 10.5865 51.199 10.8065C51.4246 11.0264 51.5958 11.2858 51.7016 11.5679C51.8075 11.8499 51.8457 12.1485 51.8137 12.4444C51.8463 12.7406 51.8086 13.0396 51.703 13.3221C51.5974 13.6047 51.4263 13.8645 51.2007 14.0849C50.975 14.3053 50.6999 14.4814 50.3929 14.602C50.0859 14.7225 49.7538 14.7848 49.4181 14.7848C49.0823 14.7848 48.7502 14.7225 48.4432 14.602C48.1362 14.4814 47.8611 14.3053 47.6355 14.0849C47.4098 13.8645 47.2387 13.6047 47.1332 13.3221C47.0276 13.0396 46.9898 12.7406 47.0224 12.4444ZM50.7825 12.4444C50.7825 11.4683 50.2879 10.8975 49.4197 10.8975C48.5483 10.8975 48.058 11.4683 48.058 12.4444C48.058 13.4283 48.5483 13.9947 49.4197 13.9947C50.2879 13.9947 50.7825 13.4244 50.7825 12.4444H50.7825Z" fill="black"/>
<path d="M58.1828 14.6978H57.1428L56.0928 11.3813H56.0135L54.968 14.6978H53.9379L52.5376 10.1948H53.5545L54.4645 13.6308H54.5394L55.5839 10.1948H56.5457L57.5901 13.6308H57.6694L58.575 10.1948H59.5776L58.1828 14.6978Z" fill="black"/>
<path d="M60.7553 10.1949H61.7204V10.9102H61.7953C61.9224 10.6533 62.1367 10.4379 62.4085 10.2941C62.6802 10.1503 62.9958 10.0852 63.3112 10.1079C63.5584 10.0915 63.8066 10.1245 64.0374 10.2046C64.2682 10.2847 64.4758 10.4098 64.6446 10.5707C64.8135 10.7315 64.9394 10.924 65.0129 11.1338C65.0865 11.3436 65.1059 11.5654 65.0696 11.7827V14.6977H64.067V12.0059C64.067 11.2823 63.7123 10.9224 62.9708 10.9224C62.803 10.9155 62.6355 10.9408 62.4797 10.9966C62.324 11.0525 62.1837 11.1375 62.0685 11.2459C61.9532 11.3543 61.8658 11.4834 61.8122 11.6246C61.7586 11.7657 61.74 11.9154 61.7578 12.0635V14.6978H60.7552L60.7553 10.1949Z" fill="black"/>
<path d="M66.6671 8.43701H67.6697V14.6978H66.6671V8.43701Z" fill="black"/>
<path d="M69.0633 12.4444C69.0314 12.1484 69.0696 11.8499 69.1755 11.5678C69.2814 11.2857 69.4526 11.0263 69.6782 10.8064C69.9038 10.5864 70.1788 10.4106 70.4855 10.2903C70.7922 10.17 71.1239 10.1079 71.4593 10.1079C71.7947 10.1079 72.1263 10.17 72.4331 10.2903C72.7398 10.4106 73.0147 10.5864 73.2403 10.8064C73.4659 11.0263 73.6371 11.2857 73.743 11.5678C73.8489 11.8499 73.8871 12.1484 73.8552 12.4444C73.8877 12.7406 73.85 13.0396 73.7443 13.3221C73.6387 13.6046 73.4676 13.8645 73.2419 14.0849C73.0163 14.3053 72.7411 14.4814 72.4341 14.6019C72.1271 14.7225 71.795 14.7847 71.4593 14.7847C71.1235 14.7847 70.7914 14.7225 70.4844 14.6019C70.1774 14.4814 69.9022 14.3053 69.6766 14.0849C69.4509 13.8645 69.2798 13.6046 69.1742 13.3221C69.0686 13.0396 69.0308 12.7406 69.0633 12.4444ZM72.8235 12.4444C72.8235 11.4683 72.3288 10.8975 71.4606 10.8975C70.5892 10.8975 70.099 11.4683 70.099 12.4444C70.099 13.4283 70.5892 13.9947 71.4606 13.9947C72.3288 13.9947 72.8235 13.4244 72.8235 12.4444H72.8235Z" fill="black"/>
<path d="M74.9108 13.4243C74.9108 12.6138 75.5916 12.1465 76.8002 12.0801L78.1763 12.0098V11.6211C78.1763 11.1455 77.8215 10.877 77.1362 10.877C76.5766 10.877 76.1888 11.0591 76.0775 11.3774H75.1069C75.2093 10.604 76.0301 10.1079 77.1825 10.1079C78.4561 10.1079 79.1744 10.6699 79.1744 11.6211V14.6978H78.2093V14.0649H78.13C77.969 14.2919 77.7429 14.477 77.4748 14.6012C77.2067 14.7254 76.9063 14.7843 76.6041 14.7719C76.3908 14.7916 76.1753 14.7714 75.9714 14.7127C75.7674 14.654 75.5797 14.5581 75.4201 14.4311C75.2606 14.3042 75.1328 14.149 75.0451 13.9756C74.9574 13.8021 74.9116 13.6144 74.9108 13.4243ZM78.1763 13.0395V12.6631L76.9357 12.7334C76.2361 12.7749 75.9188 12.9858 75.9188 13.3828C75.9188 13.7881 76.3154 14.0239 76.8608 14.0239C77.0206 14.0382 77.1821 14.0239 77.3355 13.9819C77.4889 13.9398 77.6312 13.8707 77.754 13.7789C77.8767 13.6871 77.9773 13.5743 78.0499 13.4473C78.1224 13.3202 78.1654 13.1816 78.1763 13.0395Z" fill="black"/>
<path d="M80.4919 12.4444C80.4919 11.0215 81.3171 10.1201 82.6006 10.1201C82.9181 10.1072 83.2332 10.1746 83.5091 10.3145C83.7849 10.4544 84.0102 10.661 84.1585 10.9101H84.2334V8.43701H85.2359V14.6978H84.2752V13.9863H84.1959C84.0362 14.2338 83.8031 14.4378 83.5219 14.5763C83.2407 14.7148 82.9221 14.7825 82.6006 14.772C81.3083 14.772 80.4919 13.8706 80.4919 12.4444ZM81.5276 12.4444C81.5276 13.3994 82.0355 13.9741 82.8849 13.9741C83.7299 13.9741 84.2521 13.3911 84.2521 12.4483C84.2521 11.5098 83.7244 10.9185 82.8849 10.9185C82.041 10.9185 81.5276 11.4971 81.5276 12.4444H81.5276Z" fill="black"/>
<path d="M89.384 12.4444C89.3521 12.1485 89.3903 11.8499 89.4961 11.5679C89.602 11.2858 89.7732 11.0264 89.9988 10.8065C90.2243 10.5865 90.4993 10.4107 90.806 10.2904C91.1127 10.1702 91.4443 10.108 91.7797 10.108C92.1151 10.108 92.4467 10.1702 92.7534 10.2904C93.0601 10.4107 93.335 10.5865 93.5606 10.8065C93.7862 11.0264 93.9574 11.2858 94.0633 11.5679C94.1691 11.8499 94.2073 12.1485 94.1754 12.4444C94.2079 12.7406 94.1702 13.0396 94.0646 13.3221C93.959 13.6047 93.7879 13.8645 93.5623 14.0849C93.3367 14.3053 93.0615 14.4814 92.7545 14.602C92.4475 14.7225 92.1155 14.7848 91.7797 14.7848C91.4439 14.7848 91.1119 14.7225 90.8049 14.602C90.4979 14.4814 90.2227 14.3053 89.9971 14.0849C89.7715 13.8645 89.6004 13.6047 89.4948 13.3221C89.3892 13.0396 89.3515 12.7406 89.384 12.4444ZM93.1442 12.4444C93.1442 11.4683 92.6495 10.8975 91.7813 10.8975C90.9099 10.8975 90.4197 11.4683 90.4197 12.4444C90.4197 13.4283 90.9099 13.9947 91.7813 13.9947C92.6495 13.9947 93.1442 13.4244 93.1442 12.4444Z" fill="black"/>
<path d="M95.5205 10.1949H96.4856V10.9102H96.5605C96.6876 10.6533 96.902 10.4379 97.1737 10.2941C97.4455 10.1503 97.7611 10.0852 98.0765 10.1079C98.3237 10.0915 98.5719 10.1245 98.8027 10.2046C99.0335 10.2847 99.241 10.4098 99.4099 10.5707C99.5788 10.7315 99.7046 10.924 99.7782 11.1338C99.8518 11.3436 99.8711 11.5654 99.8348 11.7827V14.6977H98.8323V12.0059C98.8323 11.2823 98.4775 10.9224 97.7361 10.9224C97.5682 10.9155 97.4007 10.9408 97.245 10.9966C97.0892 11.0525 96.9489 11.1375 96.8337 11.2459C96.7185 11.3543 96.6311 11.4834 96.5775 11.6246C96.5238 11.7657 96.5053 11.9154 96.5231 12.0635V14.6978H95.5205V10.1949Z" fill="black"/>
<path d="M105.5 9.07373V10.2153H106.6V10.9639H105.5V13.2793C105.5 13.751 105.719 13.9575 106.218 13.9575C106.346 13.9572 106.474 13.9503 106.6 13.937V14.6772C106.42 14.7058 106.238 14.721 106.055 14.7226C104.94 14.7226 104.496 14.375 104.496 13.5068V10.9638H103.69V10.2153H104.496V9.07373H105.5Z" fill="black"/>
<path d="M107.97 8.43701H108.964V10.9185H109.043C109.176 10.6591 109.397 10.4425 109.674 10.2982C109.951 10.1539 110.272 10.0888 110.592 10.1118C110.838 10.1 111.084 10.1364 111.312 10.2184C111.54 10.3004 111.745 10.4261 111.912 10.5864C112.079 10.7468 112.204 10.9378 112.279 11.146C112.353 11.3541 112.374 11.5742 112.342 11.7905V14.6978H111.338V12.0098C111.338 11.2905 110.96 10.9263 110.252 10.9263C110.079 10.9137 109.906 10.9347 109.744 10.9878C109.582 11.0408 109.434 11.1247 109.313 11.2334C109.191 11.3421 109.097 11.4732 109.038 11.6173C108.98 11.7614 108.957 11.9152 108.973 12.0679V14.6977H107.97L107.97 8.43701Z" fill="black"/>
<path d="M118.187 13.4819C118.051 13.8934 117.756 14.2494 117.353 14.4876C116.951 14.7257 116.467 14.8309 115.986 14.7846C115.651 14.7924 115.319 14.7356 115.011 14.6181C114.704 14.5006 114.429 14.3251 114.206 14.104C113.982 13.8829 113.816 13.6213 113.718 13.3375C113.621 13.0537 113.594 12.7544 113.639 12.4604C113.595 12.1655 113.622 11.8656 113.72 11.5809C113.817 11.2962 113.983 11.0335 114.205 10.8104C114.427 10.5873 114.701 10.4092 115.007 10.2879C115.314 10.1667 115.646 10.1053 115.982 10.1079C117.395 10.1079 118.248 10.9639 118.248 12.3779V12.688H114.661V12.7378C114.645 12.903 114.668 13.0693 114.729 13.2261C114.79 13.3828 114.888 13.5265 115.015 13.648C115.143 13.7694 115.297 13.866 115.469 13.9314C115.641 13.9968 115.826 14.0296 116.014 14.0278C116.253 14.0533 116.496 14.015 116.712 13.9178C116.927 13.8206 117.104 13.6688 117.222 13.4819L118.187 13.4819ZM114.661 12.0307H117.226C117.239 11.8796 117.216 11.7278 117.158 11.5851C117.101 11.4423 117.01 11.3119 116.893 11.202C116.775 11.0922 116.633 11.0053 116.475 10.9472C116.317 10.889 116.147 10.8607 115.976 10.8642C115.803 10.8623 115.631 10.8911 115.47 10.9491C115.309 11.007 115.163 11.0929 115.041 11.2016C114.918 11.3103 114.821 11.4397 114.756 11.5821C114.691 11.7245 114.658 11.877 114.661 12.0307H114.661Z" fill="black"/>
<path d="M24.9965 19.8893C25.0077 19.0214 25.2383 18.1703 25.6667 17.4154C26.0952 16.6605 26.7077 16.0262 27.4471 15.5716C26.9774 14.9007 26.3576 14.3486 25.6372 13.9591C24.9167 13.5696 24.1153 13.3535 23.2967 13.3279C21.5505 13.1446 19.8576 14.3728 18.9677 14.3728C18.0607 14.3728 16.6906 13.3461 15.2153 13.3764C14.261 13.4072 13.331 13.6847 12.5158 14.1819C11.7007 14.679 11.0282 15.3788 10.5639 16.2131C8.55278 19.6951 10.0529 24.8125 11.9794 27.6271C12.9433 29.0053 14.0698 30.5448 15.5438 30.4903C16.9862 30.4304 17.5249 29.5705 19.266 29.5705C20.9909 29.5705 21.4963 30.4903 23.0003 30.4555C24.548 30.4304 25.5232 29.0712 26.4533 27.6799C27.1458 26.6979 27.6787 25.6125 28.0323 24.464C27.133 24.0837 26.3657 23.4471 25.8258 22.6336C25.286 21.8201 24.9976 20.8657 24.9965 19.8893Z" fill="black"/>
<path d="M22.156 11.4768C22.9999 10.4637 23.4156 9.1616 23.315 7.84692C22.0257 7.98234 20.8347 8.59854 19.9794 9.57274C19.5612 10.0487 19.241 10.6023 19.0369 11.2021C18.8328 11.8019 18.7489 12.436 18.7901 13.0682C19.435 13.0749 20.0729 12.9351 20.656 12.6594C21.239 12.3838 21.7519 11.9794 22.156 11.4768Z" fill="black"/>
</g>
<defs>
<clipPath id="clip0_177_5254">
<rect width="135" height="40" fill="white"/>
</clipPath>
</defs>
</svg>
