<svg width="164" height="48" viewBox="0 0 164 48" fill="none" xmlns="http://www.w3.org/2000/svg">
<g clip-path="url(#clip0_188_5161)">
<mask id="mask0_188_5161" style="mask-type:luminance" maskUnits="userSpaceOnUse" x="0" y="0" width="164" height="48">
<path d="M163.932 0H0V47.6746H163.932V0Z" fill="white"/>
</mask>
<g mask="url(#mask0_188_5161)">
<path d="M0 23.878C0 23.5932 0 23.3085 0 23.0237C0.488136 10.2102 10.9831 0 23.878 0C36.7729 0 47.2678 10.2102 47.7153 22.983C47.7153 23.2678 47.7153 23.5525 47.7153 23.8373C47.7153 37.0169 37.017 47.6746 23.878 47.6746C10.6983 47.7152 0 37.0169 0 23.878ZM23.7966 7.76949C15.0102 7.76949 7.89153 14.8881 7.89153 23.6746C7.89153 32.461 15.0102 39.5796 23.7966 39.5796C32.5831 39.5796 39.7017 32.461 39.7017 23.6746C39.7424 14.9288 32.5831 7.76949 23.7966 7.76949Z" fill="white"/>
<path d="M31.7696 14.8068V30.7525C31.7696 30.9966 31.7289 31.2 31.6475 31.4034C31.2814 32.4203 29.9797 32.9491 28.9628 32.2576L27.295 31.1593L21.0306 26.9288V22.5763C21.0306 22.5763 21.0306 22.5356 21.0713 22.5356L21.1119 22.4949C21.1119 22.4949 21.1119 22.4949 21.1526 22.4949L26.0747 25.7898C26.1967 25.8712 26.4001 25.9525 26.5628 25.9525C26.7662 25.9525 27.0102 25.8712 27.173 25.7085C27.3357 25.5457 27.4577 25.3017 27.4577 25.0983V18.9966C27.4577 18.3051 27.6204 17.6542 27.9458 17.0441C28.7187 15.7424 30.0611 14.8881 31.6475 14.8474C31.6882 14.8068 31.7289 14.8068 31.7696 14.8068Z" fill="white"/>
<path d="M26.6034 20.3797V24.8135C26.6034 24.8949 26.5221 24.8949 26.5221 24.8949L21.5594 21.6C21.4373 21.5186 21.2339 21.4373 21.0712 21.4373C20.5831 21.4373 20.217 21.8441 20.217 22.2915V28.3932C20.217 29.0847 20.0543 29.7356 19.7289 30.3458C18.956 31.6474 17.6136 32.5017 16.0272 32.5424C15.9865 32.5424 15.9458 32.5424 15.9051 32.5424V16.6373C15.9051 16.3932 15.9458 16.1898 16.0272 16.0271C16.3933 15.0102 17.695 14.4813 18.7119 15.1729L19.2407 15.4983L26.6034 20.3797Z" fill="white"/>
<path d="M72.9355 28.8L74.1152 33.0712C72.6508 33.5593 70.6169 34.0475 68.3389 34.0475C63.1322 34.0475 59.5932 30.9153 59.5932 25.7899C59.5932 20.6644 63.1322 17.5322 68.3389 17.5322C70.6169 17.5322 72.6101 18.0204 74.1152 18.5085L72.9355 22.8204C72.1627 22.4949 71.0237 22.2509 69.8847 22.2509C67.2813 22.2509 65.8576 23.5526 65.8576 25.8305C65.8576 28.1085 67.322 29.4102 69.8847 29.4102C71.0644 29.3695 72.1627 29.1254 72.9355 28.8Z" fill="white"/>
<path d="M92.7458 33.7628H86.6034L85.8712 31.1187H81.1525L80.461 33.7628H74.278L79.8508 17.8577H87.1729L92.7458 33.7628ZM82.1695 27.3763H84.8542L83.5119 22.495L82.1695 27.3763Z" fill="white"/>
<path d="M109.342 33.7627H103.241C102.264 28.7593 101.532 28.8 99.7017 28.8V33.7627H93.8034V18.0204C95.1864 17.7763 97.7898 17.5322 99.9051 17.5322C104.461 17.5322 108.976 18.6305 108.976 23.0644C108.976 25.5458 107.349 26.6034 106.047 27.2136C107.39 27.4983 108.692 28.9221 109.342 33.7627ZM102.997 23.4305C102.997 22.1288 101.41 21.8441 100.353 21.8441C100.068 21.8441 99.8237 21.8848 99.661 21.8848V25.0577C99.8237 25.0983 99.9864 25.0983 100.19 25.0983C101.207 25.0983 102.997 24.8543 102.997 23.4305Z" fill="white"/>
<path d="M125.98 24.9356V32.8678C124.352 33.5593 122.319 34.0475 119.349 34.0475C114.183 34.0475 110.319 31.078 110.319 25.8305C110.319 20.7051 114.183 17.5322 119.634 17.5322C122.237 17.5322 123.661 17.8577 125.288 18.3051L124.515 22.6983C123.539 22.4136 122.4 22.1288 120.854 22.1288C117.722 22.1288 116.583 23.5932 116.583 25.8712C116.583 28.3932 118.414 29.5322 120.081 29.5322C120.285 29.5322 120.488 29.4915 120.651 29.4915V24.9356H125.98Z" fill="white"/>
<path d="M145.505 25.8305C145.505 30.9966 141.844 34.0881 136.515 34.0881C131.146 34.0881 127.525 30.9966 127.525 25.8305C127.525 20.6644 131.186 17.5729 136.515 17.5729C141.885 17.5729 145.505 20.6644 145.505 25.8305ZM139.322 25.8305C139.322 23.4712 138.386 22.1288 136.515 22.1288C134.644 22.1288 133.708 23.4712 133.708 25.8305C133.708 28.1898 134.644 29.5322 136.515 29.5322C138.386 29.4915 139.322 28.1491 139.322 25.8305Z" fill="white"/>
<path d="M163.932 17.8577V33.7628H158.115L153.112 25.5865V33.7628H147.498V17.8577H153.6L158.278 25.9933V17.8577H163.932Z" fill="white"/>
</g>
</g>
<defs>
<clipPath id="clip0_188_5161">
<rect width="163.932" height="48" fill="white"/>
</clipPath>
</defs>
</svg>
