<svg width="49" height="48" viewBox="0 0 49 48" fill="none" xmlns="http://www.w3.org/2000/svg">
<path d="M45.474 0H38.0653V2.08696H45.474C45.7231 2.08696 45.962 2.1859 46.1381 2.36202C46.3142 2.53814 46.4132 2.77701 46.4132 3.02609V32.4522C46.4132 32.7012 46.3142 32.9401 46.1381 33.1162C45.962 33.2924 45.7231 33.3913 45.474 33.3913H3.52621C3.27714 33.3913 3.03826 33.2924 2.86214 33.1162C2.68602 32.9401 2.58708 32.7012 2.58708 32.4522V3.02609C2.58708 2.77701 2.68602 2.53814 2.86214 2.36202C3.03826 2.1859 3.27714 2.08696 3.52621 2.08696H23.4566V0H3.52621C2.72364 0 1.95394 0.318819 1.38644 0.88632C0.818941 1.45382 0.500122 2.22352 0.500122 3.02609V32.4522C0.500122 33.2547 0.818941 34.0244 1.38644 34.5919C1.95394 35.1594 2.72364 35.4783 3.52621 35.4783H17.1958V41.7391H16.1523C15.8755 41.7391 15.6101 41.8491 15.4144 42.0448C15.2188 42.2404 15.1088 42.5059 15.1088 42.7826V45.913H11.9784V48H37.0219V45.913H33.8914V42.7826C33.8914 42.5059 33.7815 42.2404 33.5858 42.0448C33.3901 41.8491 33.1247 41.7391 32.8479 41.7391H31.8045V35.4783H45.474C46.2766 35.4783 47.0463 35.1594 47.6138 34.5919C48.1813 34.0244 48.5001 33.2547 48.5001 32.4522V3.02609C48.5001 2.22352 48.1813 1.45382 47.6138 0.88632C47.0463 0.318819 46.2766 0 45.474 0ZM17.1958 45.913V43.8261H31.8045V45.913H17.1958ZM29.7175 41.7391H19.2827V35.4783H29.7175V41.7391Z" fill="#00B56C"/>
<path d="M45.3697 26.0869H3.63055V28.1739H45.3697V26.0869Z" fill="#00B56C"/>
<path d="M44.3262 24V4.17391C44.3262 3.89716 44.2163 3.63175 44.0206 3.43606C43.8249 3.24037 43.5595 3.13043 43.2827 3.13043H39.1088V5.21739H42.2393V24H44.3262Z" fill="#00B56C"/>
<path d="M4.67401 4.17391V24H6.76097V5.21739H22.4131V3.13043H5.71749C5.44074 3.13043 5.17533 3.24037 4.97964 3.43606C4.78395 3.63175 4.67401 3.89716 4.67401 4.17391Z" fill="#00B56C"/>
<path d="M33.8914 6.26087C33.8914 5.64173 33.7078 5.03649 33.3639 4.52169C33.0199 4.00689 32.531 3.60566 31.959 3.36872C31.3869 3.13179 30.7575 3.0698 30.1503 3.19058C29.543 3.31137 28.9852 3.60952 28.5474 4.04732C28.1096 4.48512 27.8115 5.04291 27.6907 5.65015C27.5699 6.2574 27.6319 6.88682 27.8688 7.45883C28.1058 8.03085 28.507 8.51975 29.0218 8.86373C29.5366 9.20771 30.1418 9.3913 30.761 9.3913C31.5912 9.3913 32.3875 9.06149 32.9745 8.47442C33.5616 7.88735 33.8914 7.09111 33.8914 6.26087ZM29.7175 6.26087C29.7175 6.05449 29.7787 5.85274 29.8934 5.68114C30.008 5.50954 30.171 5.3758 30.3617 5.29682C30.5523 5.21784 30.7621 5.19718 30.9646 5.23744C31.167 5.2777 31.3529 5.37708 31.4988 5.52302C31.6448 5.66895 31.7442 5.85488 31.7844 6.0573C31.8247 6.25971 31.804 6.46952 31.725 6.66019C31.6461 6.85086 31.5123 7.01383 31.3407 7.12849C31.1691 7.24315 30.9674 7.30435 30.761 7.30435C30.4842 7.30435 30.2188 7.19441 30.0231 6.99872C29.8274 6.80303 29.7175 6.53762 29.7175 6.26087Z" fill="#00B56C"/>
<path d="M30.761 16.6957C30.9173 16.6956 31.0716 16.6603 31.2125 16.5926C31.3533 16.5249 31.4772 16.4264 31.5749 16.3043C32.1321 15.6094 37.0219 9.41739 37.0219 6.26087C37.0219 4.60038 36.3622 3.00791 35.1881 1.83377C34.014 0.659625 32.4215 0 30.761 0C29.1005 0 27.508 0.659625 26.3339 1.83377C25.1597 3.00791 24.5001 4.60038 24.5001 6.26087C24.5001 9.41739 29.3899 15.6094 29.9471 16.3043C30.0448 16.4264 30.1686 16.5249 30.3095 16.5926C30.4504 16.6603 30.6047 16.6956 30.761 16.6957ZM30.761 2.08696C31.868 2.08696 32.9296 2.52671 33.7124 3.30947C34.4952 4.09223 34.9349 5.15388 34.9349 6.26087C34.9349 7.84904 32.6309 11.4501 30.761 13.9461C28.8911 11.4511 26.5871 7.85009 26.5871 6.26087C26.5871 5.15388 27.0268 4.09223 27.8096 3.30947C28.5924 2.52671 29.654 2.08696 30.761 2.08696Z" fill="#00B56C"/>
<path d="M21.3697 10.4348V15.6522H19.2827V8.34784H17.1958V11.4783H11.9784V13.5652H17.1958V22.9565H19.2827V17.7391H24.5001V20.8696H26.5871V17.7391H28.674V15.6522H23.4567V10.4348H21.3697Z" fill="#00B56C"/>
</svg>
