<svg width="58" height="48" viewBox="0 0 58 48" fill="none" xmlns="http://www.w3.org/2000/svg">
<path d="M56.8245 26.0111L56.8331 25.9963L31.8485 12.368C32.2712 11.9226 32.5757 11.3784 32.7341 10.7851C32.8926 10.1919 32.9 9.56839 32.7558 8.97151C32.6115 8.37464 32.3201 7.82337 31.9082 7.36797C31.4963 6.91257 30.9769 6.56753 30.3974 6.36431V4.92308H31.6282C31.9546 4.92308 32.2677 4.79341 32.4985 4.56259C32.7293 4.33178 32.859 4.01873 32.859 3.69231V1.23077C32.859 0.904349 32.7293 0.591298 32.4985 0.360484C32.2677 0.12967 31.9546 0 31.6282 0H26.7051C26.3787 0 26.0657 0.12967 25.8348 0.360484C25.604 0.591298 25.4744 0.904349 25.4744 1.23077V3.69231C25.4744 4.01873 25.604 4.33178 25.8348 4.56259C26.0657 4.79341 26.3787 4.92308 26.7051 4.92308H27.9359V7.38462C27.9359 7.71104 28.0656 8.02409 28.2964 8.2549C28.5272 8.48571 28.8402 8.61539 29.1667 8.61539C29.4101 8.61539 29.648 8.68757 29.8504 8.82281C30.0528 8.95805 30.2106 9.15026 30.3038 9.37516C30.3969 9.60005 30.4213 9.84752 30.3738 10.0863C30.3263 10.325 30.2091 10.5443 30.037 10.7164C29.8648 10.8886 29.6455 11.0058 29.4068 11.0533C29.168 11.1008 28.9206 11.0764 28.6957 10.9832C28.4708 10.8901 28.2786 10.7323 28.1433 10.5299C28.0081 10.3275 27.9359 10.0896 27.9359 9.84615C27.9359 9.51973 27.8062 9.20668 27.5754 8.97587C27.3446 8.74506 27.0316 8.61539 26.7051 8.61539C26.3787 8.61539 26.0657 8.74506 25.8348 8.97587C25.604 9.20668 25.4744 9.51973 25.4744 9.84615C25.4763 10.7851 25.8379 11.6875 26.4848 12.368L1.50021 25.9963L1.50882 26.0111C1.31437 26.1135 1.15128 26.2667 1.03687 26.4544C0.922451 26.642 0.86098 26.8571 0.858978 27.0769V46.7692C0.858978 47.0957 0.988648 47.4087 1.21946 47.6395C1.45028 47.8703 1.76333 48 2.08975 48H56.2436C56.57 48 56.8831 47.8703 57.1139 47.6395C57.3447 47.4087 57.4744 47.0957 57.4744 46.7692V27.0769C57.4724 26.8571 57.4109 26.642 57.2965 26.4544C57.1821 26.2667 57.019 26.1135 56.8245 26.0111ZM51.4165 25.8462H6.91682L29.1667 13.7095L51.4165 25.8462ZM55.0128 45.5385H3.32052V28.3077H55.0128V45.5385Z" fill="#00B56C"/>
</svg>
