<svg width="20" height="20" viewBox="0 0 20 20" fill="none" xmlns="http://www.w3.org/2000/svg">
<path d="M9.99049 0C4.47049 0 0.000488281 4.48 0.000488281 10C0.000488281 15.52 4.47049 20 9.99049 20C15.5205 20 20.0005 15.52 20.0005 10C20.0005 4.48 15.5205 0 9.99049 0ZM16.9205 6H13.9705C13.6575 4.76146 13.1941 3.5659 12.5905 2.44C14.4146 3.068 15.9517 4.33172 16.9205 6ZM10.0005 2.04C10.8305 3.24 11.4805 4.57 11.9105 6H8.09049C8.52049 4.57 9.17049 3.24 10.0005 2.04ZM2.26049 12C2.10049 11.36 2.00049 10.69 2.00049 10C2.00049 9.31 2.10049 8.64 2.26049 8H5.64049C5.56049 8.66 5.50049 9.32 5.50049 10C5.50049 10.68 5.56049 11.34 5.64049 12H2.26049ZM3.08049 14H6.03049C6.35049 15.25 6.81049 16.45 7.41049 17.56C5.58446 16.9354 4.04632 15.6708 3.08049 14ZM6.03049 6H3.08049C4.04632 4.32918 5.58446 3.06457 7.41049 2.44C6.80691 3.5659 6.34347 4.76146 6.03049 6ZM10.0005 17.96C9.17049 16.76 8.52049 15.43 8.09049 14H11.9105C11.4805 15.43 10.8305 16.76 10.0005 17.96ZM12.3405 12H7.66049C7.57049 11.34 7.50049 10.68 7.50049 10C7.50049 9.32 7.57049 8.65 7.66049 8H12.3405C12.4305 8.65 12.5005 9.32 12.5005 10C12.5005 10.68 12.4305 11.34 12.3405 12ZM12.5905 17.56C13.1905 16.45 13.6505 15.25 13.9705 14H16.9205C15.9517 15.6683 14.4146 16.932 12.5905 17.56ZM14.3605 12C14.4405 11.34 14.5005 10.68 14.5005 10C14.5005 9.32 14.4405 8.66 14.3605 8H17.7405C17.9005 8.64 18.0005 9.31 18.0005 10C18.0005 10.69 17.9005 11.36 17.7405 12H14.3605Z" fill="white"/>
</svg>
