<svg width="135" height="40" viewBox="0 0 135 40" fill="none" xmlns="http://www.w3.org/2000/svg">
<g clip-path="url(#clip0_177_5285)">
<rect width="135" height="40" rx="5" fill="white"/>
<path d="M130 40H4.999C2.249 40 0 37.75 0 35V5C0 2.25 2.249 0 4.999 0H130C132.75 0 135 2.25 135 5V35C135 37.75 132.75 40 130 40Z" fill="white"/>
<path d="M130 0H4.999C2.249 0 0 2.25 0 5V35C0 37.75 2.249 40 4.999 40H130C132.75 40 135 37.75 135 35V5C135 2.25 132.75 0 130 0ZM130 0.8C132.316 0.8 134.2 2.684 134.2 5V35C134.2 37.316 132.316 39.201 130 39.201H4.999C2.683 39.201 0.8 37.316 0.8 35V5C0.8 2.684 2.683 0.8 4.999 0.8H130Z" fill="#030404"/>
<path d="M20.6682 19.4883L10.0212 30.7883C10.0222 30.7903 10.0222 30.7923 10.0232 30.7943C10.3492 32.0223 11.4702 32.9253 12.8002 32.9253C13.3322 32.9253 13.8312 32.7813 14.2592 32.5293L14.2932 32.5093L26.2772 25.5943L20.6682 19.4883Z" fill="#EB4335"/>
<path d="M31.4393 17.5644L31.4293 17.5574L26.2553 14.5574L20.4263 19.7444L26.2753 25.5924L31.4223 22.6234C32.3243 22.1364 32.9363 21.1854 32.9363 20.0884C32.9363 18.9994 32.3323 18.0524 31.4393 17.5644Z" fill="#FABC13"/>
<path d="M10.0212 9.34131C9.95722 9.57731 9.92322 9.82431 9.92322 10.0813V30.0483C9.92322 30.3053 9.95622 30.5533 10.0212 30.7883L21.0342 19.7773L10.0212 9.34131Z" fill="#547DBF"/>
<path d="M20.7462 20.0643L26.2572 14.5553L14.2862 7.61535C13.8512 7.35435 13.3442 7.20435 12.8002 7.20435C11.4702 7.20435 10.3482 8.10935 10.0212 9.33835V9.34135L20.7462 20.0643Z" fill="#30A851"/>
<path d="M68.094 21.705C65.742 21.705 63.825 23.493 63.825 25.958C63.825 28.407 65.742 30.211 68.094 30.211C70.446 30.211 72.363 28.407 72.363 25.958C72.363 23.493 70.446 21.705 68.094 21.705ZM68.094 28.536C66.805 28.536 65.693 27.473 65.693 25.958C65.693 24.427 66.805 23.38 68.094 23.38C69.383 23.38 70.494 24.427 70.494 25.958C70.494 27.472 69.383 28.536 68.094 28.536ZM58.78 21.705C56.428 21.705 54.511 23.493 54.511 25.958C54.511 28.407 56.428 30.211 58.78 30.211C61.132 30.211 63.049 28.407 63.049 25.958C63.05 23.493 61.132 21.705 58.78 21.705ZM58.78 28.536C57.491 28.536 56.38 27.473 56.38 25.958C56.38 24.427 57.492 23.38 58.78 23.38C60.069 23.38 61.18 24.427 61.18 25.958C61.181 27.472 60.069 28.536 58.78 28.536ZM47.702 23.01V24.814H52.02C51.891 25.829 51.553 26.57 51.037 27.086C50.409 27.714 49.426 28.407 47.702 28.407C45.044 28.407 42.966 26.264 42.966 23.606C42.966 20.948 45.044 18.805 47.702 18.805C49.136 18.805 50.183 19.369 50.956 20.094L52.229 18.821C51.15 17.79 49.716 17 47.702 17C44.061 17 41 19.964 41 23.605C41 27.246 44.061 30.21 47.702 30.21C49.667 30.21 51.15 29.566 52.31 28.357C53.502 27.165 53.873 25.489 53.873 24.136C53.873 23.717 53.841 23.33 53.776 23.008H47.702V23.01ZM93.01 24.411C92.656 23.46 91.576 21.704 89.369 21.704C87.178 21.704 85.358 23.428 85.358 25.957C85.358 28.341 87.162 30.21 89.579 30.21C91.528 30.21 92.656 29.018 93.123 28.325L91.673 27.358C91.19 28.067 90.529 28.534 89.579 28.534C88.628 28.534 87.952 28.099 87.517 27.245L93.204 24.893L93.01 24.411ZM87.21 25.829C87.162 24.186 88.483 23.348 89.433 23.348C90.174 23.348 90.802 23.718 91.012 24.25L87.21 25.829ZM82.586 29.953H84.455V17.452H82.586V29.953ZM79.525 22.655H79.461C79.042 22.156 78.237 21.704 77.222 21.704C75.095 21.704 73.146 23.573 73.146 25.973C73.146 28.357 75.095 30.21 77.222 30.21C78.237 30.21 79.042 29.759 79.461 29.243H79.525V29.855C79.525 31.482 78.655 32.352 77.253 32.352C76.109 32.352 75.4 31.53 75.11 30.838L73.483 31.515C73.95 32.643 75.191 34.028 77.253 34.028C79.444 34.028 81.297 32.739 81.297 29.598V21.962H79.525V22.655ZM77.383 28.536C76.094 28.536 75.015 27.457 75.015 25.974C75.015 24.476 76.094 23.38 77.383 23.38C78.656 23.38 79.654 24.475 79.654 25.974C79.654 27.456 78.656 28.536 77.383 28.536ZM101.764 17.452H97.293V29.953H99.158V25.217H101.763C103.831 25.217 105.864 23.72 105.864 21.335C105.864 18.95 103.832 17.452 101.764 17.452ZM101.812 23.477H99.158V19.192H101.812C103.207 19.192 103.999 20.347 103.999 21.335C103.999 22.303 103.207 23.477 101.812 23.477ZM113.344 21.682C111.993 21.682 110.594 22.277 110.015 23.596L111.672 24.288C112.026 23.596 112.685 23.371 113.377 23.371C114.342 23.371 115.323 23.95 115.339 24.979V25.108C115.001 24.915 114.277 24.625 113.393 24.625C111.608 24.625 109.79 25.606 109.79 27.44C109.79 29.113 111.254 30.19 112.894 30.19C114.149 30.19 114.84 29.627 115.274 28.968H115.338V29.933H117.139V25.14C117.139 22.92 115.483 21.682 113.344 21.682ZM113.118 28.533C112.507 28.533 111.654 28.227 111.654 27.472C111.654 26.507 112.716 26.137 113.632 26.137C114.452 26.137 114.838 26.314 115.337 26.555C115.193 27.713 114.196 28.533 113.118 28.533ZM123.701 21.955L121.562 27.375H121.498L119.279 21.955H117.269L120.598 29.53L118.7 33.744H120.646L125.777 21.955H123.701ZM106.894 29.953H108.76V17.452H106.894V29.953Z" fill="black"/>
<path fill-rule="evenodd" clip-rule="evenodd" d="M73.6091 12.224C73.0191 12.831 72.2861 13.133 71.409 13.133C70.532 13.133 69.7991 12.83 69.2101 12.224C68.6201 11.618 68.326 10.876 68.326 9.99901C68.326 9.12201 68.6201 8.38001 69.2101 7.77401C69.7991 7.16701 70.532 6.86401 71.409 6.86401C72.281 6.86401 73.0131 7.16901 73.6051 7.77801C74.1971 8.38701 74.493 9.12701 74.493 9.99901C74.493 10.877 74.1981 11.619 73.6091 12.224ZM69.7791 11.722C70.2231 12.172 70.7661 12.396 71.409 12.396C72.052 12.396 72.5951 12.171 73.0391 11.722C73.4831 11.272 73.7061 10.698 73.7061 10C73.7061 9.30201 73.4831 8.72701 73.0391 8.27801C72.5961 7.82801 72.052 7.60401 71.409 7.60401C70.7661 7.60401 70.2231 7.82901 69.7791 8.27801C69.3361 8.72801 69.1131 9.30201 69.1131 10C69.1131 10.698 69.3361 11.272 69.7791 11.722Z" fill="black"/>
<path d="M47.418 10.243C47.418 11.081 47.1701 11.748 46.673 12.246C46.109 12.838 45.3731 13.134 44.4691 13.134C43.6031 13.134 42.8661 12.834 42.2611 12.234C41.6551 11.633 41.3521 10.889 41.3521 10.001C41.3521 9.11201 41.6551 8.36801 42.2611 7.76801C42.8661 7.16701 43.6031 6.86701 44.4691 6.86701C44.8991 6.86701 45.3101 6.95101 45.7001 7.11801C46.0911 7.28601 46.404 7.50901 46.6381 7.78801L46.111 8.31601C45.714 7.84101 45.167 7.60401 44.468 7.60401C43.836 7.60401 43.29 7.82601 42.829 8.27001C42.369 8.71401 42.139 9.29001 42.139 10C42.139 10.71 42.3691 11.286 42.8301 11.731C43.2911 12.175 43.8371 12.397 44.4691 12.397C45.1391 12.397 45.6981 12.174 46.1451 11.727C46.4351 11.436 46.603 11.031 46.648 10.512H44.4691V9.79001H47.376C47.405 9.94701 47.418 10.098 47.418 10.243Z" fill="black"/>
<path d="M52.0281 7.73702H49.2961V9.63902H51.7601V10.36H49.2961V12.262H52.0281V13H48.5251V7.00002H52.0281V7.73702Z" fill="black"/>
<path d="M54.5071 13H55.2781V7.73702H56.9541V7.00002H52.8311V7.73702H54.5071V13Z" fill="black"/>
<path d="M59.938 13V7.00002H60.709V13H59.938Z" fill="black"/>
<path d="M63.3561 13H64.1271V7.73702H65.8031V7.00002H61.6801V7.73702H63.3561V13Z" fill="black"/>
<path d="M75.575 7.00002V13H76.344V9.26202L76.311 8.10602H76.344L79.395 13H80.2V7.00002H79.429V10.512L79.462 11.668H79.429L76.513 7.00002H75.575Z" fill="black"/>
<path fill-rule="evenodd" clip-rule="evenodd" d="M73.6091 12.224C73.0191 12.831 72.2861 13.133 71.409 13.133C70.532 13.133 69.7991 12.83 69.2101 12.224C68.6201 11.618 68.326 10.876 68.326 9.99901C68.326 9.12201 68.6201 8.38001 69.2101 7.77401C69.7991 7.16701 70.532 6.86401 71.409 6.86401C72.281 6.86401 73.0131 7.16901 73.6051 7.77801C74.1971 8.38701 74.493 9.12701 74.493 9.99901C74.493 10.877 74.1981 11.619 73.6091 12.224ZM69.7791 11.722C70.2231 12.172 70.7661 12.396 71.409 12.396C72.052 12.396 72.5951 12.171 73.0391 11.722C73.4831 11.272 73.7061 10.698 73.7061 10C73.7061 9.30201 73.4831 8.72701 73.0391 8.27801C72.5961 7.82801 72.052 7.60401 71.409 7.60401C70.7661 7.60401 70.2231 7.82901 69.7791 8.27801C69.3361 8.72801 69.1131 9.30201 69.1131 10C69.1131 10.698 69.3361 11.272 69.7791 11.722Z" stroke="black" stroke-width="0.2" stroke-miterlimit="10"/>
<path d="M47.418 10.243C47.418 11.081 47.1701 11.748 46.673 12.246C46.109 12.838 45.3731 13.134 44.4691 13.134C43.6031 13.134 42.8661 12.834 42.2611 12.234C41.6551 11.633 41.3521 10.889 41.3521 10.001C41.3521 9.11201 41.6551 8.36801 42.2611 7.76801C42.8661 7.16701 43.6031 6.86701 44.4691 6.86701C44.8991 6.86701 45.3101 6.95101 45.7001 7.11801C46.0911 7.28601 46.404 7.50901 46.6381 7.78801L46.111 8.31601C45.714 7.84101 45.167 7.60401 44.468 7.60401C43.836 7.60401 43.29 7.82601 42.829 8.27001C42.369 8.71401 42.139 9.29001 42.139 10C42.139 10.71 42.3691 11.286 42.8301 11.731C43.2911 12.175 43.8371 12.397 44.4691 12.397C45.1391 12.397 45.6981 12.174 46.1451 11.727C46.4351 11.436 46.603 11.031 46.648 10.512H44.4691V9.79001H47.376C47.405 9.94701 47.418 10.098 47.418 10.243Z" stroke="black" stroke-width="0.2" stroke-miterlimit="10"/>
<path d="M52.0281 7.73702H49.2961V9.63902H51.7601V10.36H49.2961V12.262H52.0281V13H48.5251V7.00002H52.0281V7.73702Z" stroke="black" stroke-width="0.2" stroke-miterlimit="10"/>
<path d="M54.5071 13H55.2781V7.73702H56.9541V7.00002H52.8311V7.73702H54.5071V13Z" stroke="black" stroke-width="0.2" stroke-miterlimit="10"/>
<path d="M59.938 13V7.00002H60.709V13H59.938Z" stroke="black" stroke-width="0.2" stroke-miterlimit="10"/>
<path d="M63.3561 13H64.1271V7.73702H65.8031V7.00002H61.6801V7.73702H63.3561V13Z" stroke="black" stroke-width="0.2" stroke-miterlimit="10"/>
<path d="M75.575 7.00002V13H76.344V9.26202L76.311 8.10602H76.344L79.395 13H80.2V7.00002H79.429V10.512L79.462 11.668H79.429L76.513 7.00002H75.575Z" stroke="black" stroke-width="0.2" stroke-miterlimit="10"/>
</g>
<defs>
<clipPath id="clip0_177_5285">
<rect width="135" height="40" rx="5" fill="white"/>
</clipPath>
</defs>
</svg>
