<svg width="18" height="24" viewBox="0 0 18 24" fill="none" xmlns="http://www.w3.org/2000/svg">
<path d="M8.99999 1.11768C5.10293 1.11768 1.94116 4.24289 1.94116 8.092C1.94116 12.521 6.64704 19.5396 8.37499 21.9638C8.44671 22.0661 8.54072 22.1494 8.64934 22.2068C8.75796 22.2642 8.87811 22.2941 8.99999 22.2941C9.12186 22.2941 9.24202 22.2642 9.35063 22.2068C9.45925 22.1494 9.55326 22.0661 9.62499 21.9638C11.3529 19.5406 16.0588 12.5245 16.0588 8.092C16.0588 4.24289 12.897 1.11768 8.99999 1.11768Z" stroke="#00B56C" stroke-width="2" stroke-linecap="round" stroke-linejoin="round"/>
<path d="M8.99974 11.7059C10.5591 11.7059 11.8233 10.4418 11.8233 8.88237C11.8233 7.32298 10.5591 6.05884 8.99974 6.05884C7.44035 6.05884 6.17621 7.32298 6.17621 8.88237C6.17621 10.4418 7.44035 11.7059 8.99974 11.7059Z" stroke="#00B56C" stroke-width="2" stroke-linecap="round" stroke-linejoin="round"/>
</svg>
