<svg width="21" height="21" viewBox="0 0 21 21" fill="none" xmlns="http://www.w3.org/2000/svg">
<path d="M19.0154 15.7047C18.3148 14.9989 16.618 13.9688 15.7947 13.5536C14.7226 13.0136 14.6344 12.9695 13.7917 13.5955C13.2297 14.0133 12.856 14.3865 12.1982 14.2462C11.5404 14.106 10.1109 13.315 8.85926 12.0674C7.60761 10.8198 6.77068 9.34895 6.62994 8.69339C6.4892 8.03783 6.86862 7.66858 7.28245 7.10522C7.8657 6.31114 7.82159 6.17879 7.32304 5.10678C6.93436 4.27299 5.87419 2.59218 5.16564 1.89515C4.40768 1.14651 4.40768 1.27885 3.91929 1.48179C3.52167 1.64907 3.14022 1.85241 2.7797 2.08926C2.0738 2.55821 1.68202 2.94775 1.40805 3.53317C1.13407 4.11859 1.01098 5.49103 2.42587 8.06121C3.84075 10.6314 4.83342 11.9456 6.88803 13.9943C8.94264 16.0431 10.5225 17.1446 12.8321 18.4399C15.6893 20.04 16.7852 19.7281 17.3724 19.4545C17.9596 19.181 18.351 18.7928 18.8208 18.087C19.0583 17.7271 19.2621 17.3461 19.4297 16.9488C19.6331 16.4622 19.7654 16.4622 19.0154 15.7047Z" stroke="#00B56C" stroke-width="2" stroke-miterlimit="10"/>
</svg>
