<svg width="49" height="48" viewBox="0 0 49 48" fill="none" xmlns="http://www.w3.org/2000/svg">
<path d="M19.4139 17.0322C18.1334 17.0322 17.0913 18.0743 17.0913 19.3548V28.6451C17.0913 29.9256 18.1334 30.9677 19.4139 30.9677H30.2526C31.5331 30.9677 32.5752 29.9256 32.5752 28.6451V19.3548C32.5752 18.0743 31.5331 17.0322 30.2526 17.0322H19.4139ZM23.2849 18.5806H26.3816V21.6774H23.2849V18.5806ZM31.0268 19.3548V28.6451C31.0268 29.0725 30.68 29.4193 30.2526 29.4193H19.4139C18.9865 29.4193 18.6397 29.0725 18.6397 28.6451V19.3548C18.6397 18.9275 18.9865 18.5806 19.4139 18.5806H21.7365V23.2258H27.93V18.5806H30.2526C30.68 18.5806 31.0268 18.9275 31.0268 19.3548Z" fill="#00B56C"/>
<path d="M47.2849 37.1613H45.7365V46.4516H44.1881V40.2581H42.6397V46.4516H41.0913V38.7097H39.5429V46.4516H37.9945V41.8064H36.4462V46.4516H34.8978V43.3548H33.3494V46.4516H32.3847L30.1233 38.5332C36.0598 36.3654 40.3171 30.6782 40.3171 24C40.3171 22.68 40.1375 21.3662 39.7976 20.0764C44.8655 19.56 48.8333 15.2663 48.8333 10.0645C48.8333 4.5151 44.3182 0 38.7687 0C33.5669 0 29.2733 3.96774 28.7569 9.03561C27.4671 8.69574 26.1533 8.51613 24.8333 8.51613C22.4704 8.51613 20.2384 9.06348 18.2325 10.0142L11.24 2.32258H0.833252V3.87097H10.5556L16.8281 10.7714C12.354 13.4888 9.34938 18.3941 9.34938 24C9.34938 27.1997 10.3256 30.1765 11.9948 32.647L10.1236 34.5182L9.34938 33.744L2.02164 41.0717C1.25519 41.8382 0.833252 42.857 0.833252 43.9417C0.833252 46.1791 2.65416 48 4.89157 48C5.97545 48 6.99506 47.5781 7.76151 46.8116L15.0893 39.4839L14.3151 38.7097L16.1863 36.8385C18.6567 38.5076 21.6335 39.4839 24.8333 39.4839C26.1502 39.4839 27.4214 39.3012 28.6431 38.9899L31.2172 48H48.8333V46.4516H47.2849V37.1613ZM35.672 24C35.672 29.9768 30.81 34.8387 24.8333 34.8387C18.8565 34.8387 13.9945 29.9768 13.9945 24C13.9945 18.0232 18.8565 13.1613 24.8333 13.1613C26.5256 13.1613 28.1453 13.5554 29.6565 14.311C30.6575 16.4493 32.384 18.1757 34.5223 19.1768C35.2779 20.688 35.672 22.3076 35.672 24ZM38.7687 1.54839C39.2379 1.54839 39.9695 2.62142 40.4867 4.64516H37.0508C37.568 2.62142 38.2996 1.54839 38.7687 1.54839ZM40.8033 6.19355C40.9481 7.1009 41.0472 8.13445 41.0782 9.29032H36.4601C36.4911 8.13445 36.5902 7.1009 36.7349 6.19355H40.8033ZM47.2454 9.29032H42.6265C42.5979 8.232 42.5089 7.18529 42.3618 6.19355H46.3442C46.8296 7.13884 47.1455 8.18323 47.2454 9.29032ZM38.7687 18.5806C38.2996 18.5806 37.568 17.5076 37.0508 15.4839H40.4867C39.9695 17.5076 39.2379 18.5806 38.7687 18.5806ZM36.7342 13.9355C36.5894 13.0281 36.4903 11.9946 36.4593 10.8387H41.0774C41.0464 11.9946 40.9473 13.0281 40.8025 13.9355H36.7342ZM30.2921 10.8387H34.9109C34.9396 11.897 35.0286 12.9437 35.1757 13.9355H31.1933C30.7078 12.9902 30.392 11.9458 30.2921 10.8387ZM42.6265 10.8387H47.2454C47.1447 11.9458 46.8296 12.9902 46.3442 13.9355H42.3618C42.5089 12.9437 42.5979 11.897 42.6265 10.8387ZM34.9109 9.29032H30.2921C30.3927 8.18323 30.7078 7.13884 31.1933 6.19355H35.1757C35.0286 7.18529 34.9396 8.232 34.9109 9.29032ZM32.2043 15.4839H35.4614C35.7037 16.5414 36.0227 17.4859 36.4175 18.2431C34.7476 17.7623 33.2843 16.7892 32.2043 15.4839ZM41.12 18.2431C41.5148 17.4859 41.8338 16.5414 42.0761 15.4839H45.3331C44.2531 16.7892 42.7899 17.7623 41.12 18.2431ZM45.3331 4.64516H42.0761C41.8338 3.58761 41.5148 2.6431 41.12 1.88594C42.7899 2.36671 44.2531 3.33987 45.3331 4.64516ZM36.4175 1.88594C36.0234 2.6431 35.7037 3.58761 35.4622 4.64516H32.2051C33.2843 3.33987 34.7476 2.36671 36.4175 1.88594ZM6.6668 45.7169C6.19299 46.1907 5.56203 46.4516 4.89157 46.4516C3.50732 46.4516 2.38164 45.3259 2.38164 43.9417C2.38164 43.2712 2.64254 42.6403 3.11635 42.1665L9.34938 35.9334L12.8998 39.4839L6.6668 45.7169ZM13.2203 37.615L11.2183 35.6129L12.9362 33.895C13.5416 34.6212 14.2121 35.2916 14.9383 35.897L13.2203 37.615ZM10.8978 24C10.8978 16.3161 17.1494 10.0645 24.8333 10.0645C26.1471 10.0645 27.4547 10.2658 28.7336 10.6397C28.7669 11.2188 28.8451 11.7848 28.9721 12.3337C27.6451 11.863 26.2415 11.6129 24.8333 11.6129C18.0033 11.6129 12.4462 17.1701 12.4462 24C12.4462 30.8299 18.0033 36.3871 24.8333 36.3871C31.6632 36.3871 37.2203 30.8299 37.2203 24C37.2203 22.5917 36.9703 21.1881 36.4988 19.8612C37.0477 19.9881 37.6136 20.0671 38.1927 20.0996C38.5674 21.3786 38.7687 22.6862 38.7687 24C38.7687 31.6839 32.5171 37.9355 24.8333 37.9355C17.1494 37.9355 10.8978 31.6839 10.8978 24Z" fill="#00B56C"/>
<path d="M10.1236 5.41937H2.38165V6.96776H10.1236V5.41937Z" fill="#00B56C"/>
<path d="M10.1236 8.51611H2.38165V10.0645H10.1236V8.51611Z" fill="#00B56C"/>
<path d="M7.02678 11.6129H5.47839V13.1613H7.02678V11.6129Z" fill="#00B56C"/>
<path d="M10.1236 11.6129H8.5752V13.1613H10.1236V11.6129Z" fill="#00B56C"/>
<path d="M3.93004 11.6129H2.38165V13.1613H3.93004V11.6129Z" fill="#00B56C"/>
</svg>
